<svg width="80" height="74" viewBox="0 0 80 74" fill="none" xmlns="http://www.w3.org/2000/svg">
<path d="M40.003 73.3294C41.1613 73.3948 42.2982 72.9946 43.164 72.2165C44.0299 71.4384 44.554 70.346 44.6214 69.179L45.3288 63.6092C41.8214 64.4158 38.1786 64.4158 34.6712 63.6092L35.3786 69.179C35.4625 70.3409 35.9923 71.424 36.8557 72.1989C37.719 72.9737 38.8479 73.3792 40.003 73.3294ZM71.3575 72.1316H80V22.4228C80 15.6373 76.8854 11.0797 71.3575 9.36082V72.1316ZM0.0297206 72.1316H8.64254V9.33087C3.11465 11.0497 0 15.6074 0 22.3929L0.0297206 72.1316ZM45.3288 63.6212C50.9577 62.2018 54.6727 58.1533 55.5821 51.0443L61.009 8.82181C54.7738 10.3191 51.356 15.1103 50.3514 22.896L45.3288 63.6212ZM34.6712 63.6212L29.6486 22.896C28.644 15.1103 25.2262 10.3191 18.997 8.82181L24.4238 51.0443C25.3273 58.1353 28.9472 62.1839 34.6712 63.6212ZM71.3575 9.34285V5.39011C71.3575 1.94643 69.3484 0 66.632 0C63.9156 0 62.0135 1.62302 61.5083 5.16252L61.009 8.80983C64.4482 8.1282 68.0005 8.30295 71.3575 9.3189V9.34285ZM8.64254 9.33087C10.5892 8.6988 12.6247 8.38934 14.6697 8.41456C16.1228 8.38396 17.5746 8.5206 18.997 8.82181L18.4917 5.1745C17.9924 1.635 16.0785 0.0119783 13.368 0.0119783C10.6576 0.0119783 8.61283 1.93445 8.61283 5.40209L8.64254 9.33087Z" fill="#2D2D2D"/>
</svg>
